PathFileType	4	(X/Y/Z)	s03c0103.trc
DataRate	CameraRate	NumFrames	NumMarkers	Units	OrigDataRate	OrigDataStartFrame	OrigNumFrames
200	200	4	50	mm	200	750	2000
Frame#	Time	racr			lacr			c7			jug			rlel			rdr			llel			ldr			s2			lic			ric			lasi			rasi			rpsi			lpsi			rgt			lgt			rth1			rth2			rth3			rth4			rlfc			rmfc			rsh1			rsh2			rsh3			rsh4			rlmal			rcal			rtoe			rmt5			rmt1			lth1			lth2			lth4			lth3			llfc			lmfc			lsh1			lsh2			lsh3			lsh4			llmal			lcal			ltoe			lmt1			lmt5			SBIKE			LBIKE			RBIKE			
		X1	Y1	Z1	X2	Y2	Z2	X3	Y3	Z3	X4	Y4	Z4	X5	Y5	Z5	X6	Y6	Z6	X7	Y7	Z7	X8	Y8	Z8	X9	Y9	Z9	X10	Y10	Z10	X11	Y11	Z11	X12	Y12	Z12	X13	Y13	Z13	X14	Y14	Z14	X15	Y15	Z15	X16	Y16	Z16	X17	Y17	Z17	X18	Y18	Z18	X19	Y19	Z19	X20	Y20	Z20	X21	Y21	Z21	X22	Y22	Z22	X23	Y23	Z23	X24	Y24	Z24	X25	Y25	Z25	X26	Y26	Z26	X27	Y27	Z27	X28	Y28	Z28	X29	Y29	Z29	X30	Y30	Z30	X31	Y31	Z31	X32	Y32	Z32	X33	Y33	Z33	X34	Y34	Z34	X35	Y35	Z35	X36	Y36	Z36	X37	Y37	Z37	X38	Y38	Z38	X39	Y39	Z39	X40	Y40	Z40	X41	Y41	Z41	X42	Y42	Z42	X43	Y43	Z43	X44	Y44	Z44	X45	Y45	Z45	X46	Y46	Z46	X47	Y47	Z47	X48	Y48	Z48	X49	Y49	Z49	X50	Y50	Z50	
750	3.7500	494.387047	1404.986521	-137.720518	421.332061	1423.491024	-427.497966	391.622919	1501.548771	-268.482831	399.140234	1328.388396	-283.172731	549.738531	1152.613371	-25.282290	752.535120	937.975957	-59.323534	512.977213	1171.388913	-477.996171	738.119669	955.693751	-431.989277	-115.936122	1214.979268	-171.469710	17.709940	1270.528819	-376.521166	81.011504	1240.935987	-15.160097	53.861145	1201.825288	-343.638882	101.473269	1174.948054	-66.047055	-78.746156	1261.902539	-126.428953	-91.189238	1271.449733	-205.556165	14.891598	1115.684517	-4.181879	-17.202006	1190.703583	-397.251863	97.129910	973.373666	7.093132	167.943165	918.915224	4.273502	203.016701	841.096681	-6.705548	195.649743	941.202148	-7.289296	260.250120	729.220449	-42.626996	260.152106	717.388146	-162.100867	204.690662	572.190261	-17.732042	199.601226	484.362190	-34.805383	151.694745	410.289926	-37.529481	228.095298	478.486912	-59.935910	101.139608	290.143542	-62.949955	32.533182	273.115149	-98.982357	314.303032	142.428170	-116.543464	200.506801	171.476604	-41.214809	228.659138	182.475662	-154.213010	99.752770	1123.594346	-448.002846	183.156786	1115.213848	-469.813520	199.318302	1147.106397	-458.509769	253.101609	1062.010822	-487.353324	386.439422	1017.852979	-497.125108	414.678358	1004.655436	-366.384528	312.925009	859.231622	-495.936102	299.521501	778.934654	-468.977802	242.508352	710.607461	-453.066046	330.811403	769.713827	-449.304721	185.840025	600.796300	-420.811667	117.582632	567.699303	-367.849678	419.319535	502.468943	-361.910022	326.050098	517.536425	-320.750134	299.190561	499.428517	-435.367458	-217.530532	944.372001	-232.079589	-12.037957	81.558053	-435.367914	-11.689890	80.748556	-35.009027	
751	3.7550	494.421004	1403.550344	-138.002710	420.144373	1423.270022	-427.538259	391.455367	1500.685018	-268.316224	398.408540	1327.524818	-283.377090	548.766055	1151.205744	-24.760898	752.325195	937.565578	-58.983764	510.945097	1171.077971	-479.035606	736.793122	955.986245	-431.781973	-116.641743	1215.355591	-171.636643	16.055093	1271.628512	-375.803167	80.780474	1240.050544	-14.560990	52.735805	1201.842305	-342.695552	101.041286	1174.396233	-65.989812	-79.129743	1261.621806	-125.422542	-91.513037	1271.209049	-204.466220	15.274234	1115.363065	-3.842208	-17.964810	1189.835789	-397.119924	98.756655	974.277393	7.180757	170.329152	920.970383	4.336954	206.466595	843.567030	-6.202573	197.624588	943.519052	-7.370153	264.545806	731.725837	-41.490682	264.452913	719.903852	-161.029915	205.442590	575.852191	-16.835799	198.071038	488.253425	-34.094668	148.332710	415.371775	-36.884183	226.417281	481.689813	-59.296255	94.783485	296.507876	-62.693158	25.857974	280.487088	-99.073991	304.879864	144.085152	-116.266257	191.802891	175.589285	-41.010022	220.038747	185.803114	-154.315930	100.133137	1121.441764	-446.917228	183.733929	1112.378656	-467.149114	199.784202	1144.448626	-456.988720	253.510838	1059.016542	-484.742473	387.060500	1014.759921	-493.909228	414.089069	1001.690404	-362.547554	315.321468	854.904145	-493.441087	302.830449	774.181232	-467.195073	246.579072	705.093166	-452.065124	334.156457	765.155448	-447.443281	191.545704	593.542308	-420.617777	124.063390	558.113329	-368.166865	427.556753	502.012850	-361.574106	333.580010	514.424659	-320.373554	307.860126	494.927904	-434.488522	-217.565021	944.388391	-231.927273	-12.071433	81.593152	-435.318135	-11.982467	81.054669	-34.879756	
752	3.7600	494.401212	1402.067195	-138.297774	419.052091	1422.849286	-427.598558	391.231722	1499.738574	-268.172675	397.675368	1326.583090	-283.601205	548.267319	1150.159671	-24.094166	752.140255	937.190807	-58.599523	508.904109	1170.477244	-479.974911	735.533675	956.273357	-432.036358	-117.211212	1214.289947	-170.778056	14.496727	1272.307541	-375.201552	80.687962	1239.142039	-14.190791	51.748582	1201.647411	-341.998112	100.607175	1173.807391	-65.986375	-79.618578	1261.197125	-124.600573	-91.735195	1270.699851	-203.584543	15.612176	1115.043895	-3.540380	-18.779317	1188.935109	-396.370020	100.336463	975.307018	7.216746	172.690610	923.019445	4.425989	209.999215	846.079856	-5.667364	199.610601	945.854502	-7.509782	269.044123	734.428887	-40.300933	269.200033	722.390714	-159.963656	206.399042	579.716173	-16.042982	197.148227	492.664602	-33.254542	145.141698	420.827176	-36.397004	225.496518	485.464542	-58.275997	88.739056	303.245146	-62.590975	19.526784	288.404133	-99.333966	295.680804	146.163768	-116.046102	183.288423	180.131055	-40.947507	211.831723	189.343596	-154.311809	100.546989	1119.043010	-446.187447	184.244529	1109.242009	-465.545265	199.980932	1140.698593	-453.886957	253.802619	1055.324930	-482.271960	387.544814	1010.426463	-490.403238	413.349232	997.527336	-358.986795	317.305228	849.699686	-490.925159	305.756745	768.554105	-465.468182	250.313305	698.670964	-451.065529	337.178414	759.709459	-445.701749	197.095802	585.593827	-420.493784	130.054324	547.890982	-368.314190	435.362223	501.127029	-361.510740	341.053410	510.625982	-320.534052	315.927683	490.352747	-434.606648	-217.582991	944.406353	-231.744223	-12.104666	81.622794	-435.284069	-11.723763	80.722238	-34.930588	
753	3.7650	494.386528	1400.859752	-138.665530	417.998938	1422.194530	-427.726101	390.935578	1498.739931	-268.137898	397.089148	1325.581094	-283.738404	547.603162	1149.359301	-23.775753	751.961051	936.921485	-58.086469	506.795188	1169.747820	-480.869725	734.393426	956.369553	-432.052145	-116.899675	1213.379840	-169.472960	13.175590	1272.685592	-374.692096	80.381331	1238.200481	-13.882496	50.827022	1201.114122	-341.138572	100.099259	1173.136652	-65.932068	-80.295027	1260.604231	-123.893704	-91.952208	1270.051476	-202.820023	15.876641	1114.627455	-3.252355	-19.139723	1187.613037	-396.146714	101.893666	976.369805	7.214255	175.056396	925.071533	4.453973	213.925320	848.553992	-5.131152	201.602660	948.318344	-7.562443	273.579489	737.360346	-39.076363	275.231306	725.109662	-158.991943	207.561306	583.754064	-15.337814	196.051247	497.053609	-32.835596	142.316465	426.568057	-36.083943	224.223716	489.262537	-57.800544	83.059116	310.472486	-62.831491	13.353555	297.093511	-99.344159	286.731245	148.623813	-115.880615	175.113657	185.254375	-40.931376	203.827641	193.535660	-154.395693	101.043809	1115.936262	-444.946159	184.781814	1105.454606	-464.023455	200.629877	1136.961946	-452.713611	254.046819	1050.927350	-479.871927	387.798841	1005.085620	-487.020627	412.488392	992.257982	-355.659489	318.954942	843.576252	-488.528416	308.477022	761.996660	-463.867111	253.824665	691.374515	-450.046621	339.934328	753.399073	-444.085894	202.500352	576.743737	-420.410637	136.082177	536.805591	-368.569348	442.727022	499.680747	-361.670086	348.142015	506.179864	-320.605536	323.647958	485.042815	-434.881337	-217.580398	944.424161	-231.573563	-12.119290	81.652220	-435.223526	-11.735529	80.724358	-34.892736	
